<?xml version="1.0" encoding="UTF-8"?>
<svg xmlns="http://www.w3.org/2000/svg" xmlns:xlink="http://www.w3.org/1999/xlink" width="450pt" height="150pt" viewBox="0 0 450 150" version="1.1">
<g id="surface1">
<path style=" stroke:none;fill-rule:nonzero;fill:rgb(10.980392%,10.980392%,10.980392%);fill-opacity:1;" d="M 99.882812 50.070312 C 93.226562 43.40625 84.355469 39.738281 74.9375 39.738281 C 65.515625 39.738281 56.679688 43.40625 50.019531 50.070312 C 43.363281 56.734375 39.699219 65.609375 39.699219 75.039062 C 39.699219 84.46875 43.363281 93.34375 50.019531 100.011719 C 56.679688 106.675781 65.546875 110.339844 74.964844 110.339844 C 84.386719 110.339844 93.253906 106.675781 99.914062 100.011719 C 106.570312 93.34375 110.234375 84.46875 110.234375 75.039062 C 110.234375 65.609375 106.542969 56.734375 99.882812 50.070312 Z M 99.882812 50.070312 "/>
<path style=" stroke:none;fill-rule:nonzero;fill:rgb(10.980392%,10.980392%,10.980392%);fill-opacity:1;" d="M 74.9375 36.070312 C 53.449219 36.070312 36.035156 53.503906 36.035156 75.011719 C 36.035156 96.515625 53.449219 113.949219 74.9375 113.949219 C 96.421875 113.949219 113.839844 96.515625 113.839844 75.011719 C 113.839844 53.503906 96.453125 36.070312 74.9375 36.070312 Z M 74.9375 111.765625 C 54.671875 111.765625 38.214844 95.324219 38.214844 75.011719 C 38.214844 54.695312 54.671875 38.28125 74.9375 38.28125 C 95.203125 38.28125 111.660156 54.726562 111.660156 75.039062 C 111.660156 95.351562 95.230469 111.765625 74.9375 111.765625 Z M 74.9375 111.765625 "/>
<path style=" stroke:none;fill-rule:nonzero;fill:rgb(100%,100%,100%);fill-opacity:1;" d="M 93.214844 74.347656 C 93.234375 74.269531 93.246094 74.1875 93.246094 74.105469 C 93.246094 73.335938 92.402344 72.710938 91.363281 72.710938 C 90.988281 72.710938 90.640625 72.792969 90.347656 72.933594 C 89.847656 72.796875 89.339844 72.695312 88.824219 72.632812 C 88.367188 72.117188 87.566406 71.773438 86.660156 71.773438 C 85.507812 71.773438 84.53125 72.324219 84.203125 73.089844 C 82.386719 73.707031 80.988281 74.8125 80.382812 76.15625 L 86.410156 76.15625 L 86.40625 76.15625 C 85.972656 76.507812 84.820312 77.097656 81.976562 77.097656 C 80.226562 77.097656 78.769531 77.691406 77.644531 78.855469 C 77.148438 79.371094 76.757812 79.960938 76.449219 80.578125 C 76.042969 78.507812 75.886719 75.558594 77.285156 74.988281 C 81.324219 73.339844 84.121094 70.160156 84.449219 66.925781 L 96.53125 66.925781 C 95.445312 64.515625 93.011719 62.507812 89.828125 61.3125 C 89.945312 61.105469 90.011719 60.882812 90.011719 60.652344 C 90.011719 59.539062 88.515625 58.632812 86.667969 58.632812 C 86.324219 58.632812 85.992188 58.664062 85.679688 58.722656 C 85.085938 57.71875 83.628906 57.117188 82.019531 57.320312 C 80.035156 57.574219 78.578125 58.953125 78.761719 60.40625 C 78.769531 60.457031 78.777344 60.507812 78.789062 60.5625 C 76.46875 61.058594 74.40625 61.949219 72.773438 63.121094 C 72.769531 63.121094 72.761719 63.121094 72.757812 63.117188 C 72.5625 62.851562 72.207031 62.675781 71.800781 62.675781 C 71.550781 62.675781 71.324219 62.742188 71.136719 62.855469 C 70.601562 62.796875 70.058594 62.769531 69.519531 62.769531 C 68.152344 62.769531 66.847656 62.949219 65.652344 63.273438 C 65.371094 63.152344 65.070312 63.09375 64.769531 63.09375 C 63.839844 63.09375 63.070312 63.644531 62.917969 64.363281 C 62.132812 64.796875 61.445312 65.304688 60.871094 65.871094 C 60.339844 65.613281 59.691406 65.460938 58.996094 65.460938 C 57.152344 65.460938 55.65625 66.523438 55.65625 67.832031 C 55.65625 68.140625 55.738281 68.4375 55.894531 68.710938 C 54.625 69.527344 53.664062 70.558594 53.140625 71.722656 L 59.859375 71.722656 C 59.925781 72.113281 60.15625 72.828125 60.972656 73.488281 C 62.140625 74.4375 64.09375 74.917969 66.773438 74.917969 C 67.925781 74.917969 68.828125 75.273438 69.535156 76.003906 C 71.355469 77.886719 71.257812 81.558594 71.253906 81.59375 L 71.261719 81.59375 L 70.433594 93.878906 C 70.433594 94.320312 72.167969 94.675781 74.308594 94.675781 C 76.449219 94.675781 78.183594 94.320312 78.183594 93.878906 L 77.59375 84.394531 C 77.753906 83.15625 78.164062 81.460938 79.21875 80.367188 C 79.925781 79.636719 80.828125 79.28125 81.976562 79.28125 C 84.660156 79.28125 86.613281 78.800781 87.78125 77.851562 C 88.550781 77.230469 88.800781 76.558594 88.878906 76.15625 L 94.675781 76.15625 C 94.371094 75.484375 93.867188 74.871094 93.214844 74.347656 Z M 70.492188 69.125 C 69.824219 68.617188 69.046875 68.175781 68.1875 67.820312 L 70.296875 67.820312 C 70.335938 68.277344 70.398438 68.714844 70.492188 69.125 Z M 73.191406 74.867188 C 72.945312 75.570312 72.796875 76.382812 72.75 77.285156 C 72.402344 76.296875 71.882812 75.300781 71.105469 74.492188 C 69.980469 73.328125 68.523438 72.734375 66.773438 72.734375 C 64.359375 72.734375 63.160156 72.3125 62.578125 71.957031 C 62.464844 71.890625 62.359375 71.8125 62.261719 71.722656 L 71.625 71.722656 C 71.8125 71.980469 72.015625 72.21875 72.238281 72.4375 C 72.707031 72.902344 73.246094 73.285156 73.835938 73.570312 C 73.570312 73.972656 73.351562 74.410156 73.191406 74.867188 Z M 75.117188 72.273438 C 74.574219 72.082031 73.960938 71.769531 73.429688 71.238281 C 72.621094 70.433594 72.136719 69.289062 71.992188 67.820312 L 79.550781 67.820312 C 79.410156 67.507812 79.238281 67.207031 79.046875 66.925781 L 80.976562 66.925781 C 80.824219 67.648438 80.417969 68.417969 79.800781 69.148438 C 78.871094 70.25 77.550781 71.167969 75.988281 71.804688 C 75.679688 71.929688 75.390625 72.089844 75.117188 72.273438 Z M 75.117188 72.273438 "/>
<path style=" stroke:none;fill-rule:nonzero;fill:rgb(10.980392%,10.980392%,10.980392%);fill-opacity:1;" d="M 136.519531 83.472656 L 144.988281 83.472656 L 148.023438 53.59375 L 142.164062 53.59375 L 140.863281 77.308594 L 140.511719 77.308594 L 138.042969 53.59375 L 130.703125 53.59375 L 128.324219 77.308594 L 127.972656 77.308594 L 126.539062 53.59375 L 120.511719 53.59375 L 123.546875 83.472656 L 132.011719 83.472656 L 134.140625 62.625 L 134.394531 62.625 Z M 160.496094 82.472656 C 161.578125 83.375 163.410156 83.816406 165.984375 83.816406 C 168.5625 83.816406 170.386719 83.375 171.476562 82.472656 C 172.554688 81.574219 173.234375 80.15625 173.496094 78.214844 C 173.75 76.277344 173.878906 73.050781 173.878906 68.53125 C 173.878906 64.019531 173.75 60.785156 173.496094 58.84375 C 173.234375 56.910156 172.554688 55.484375 171.476562 54.59375 C 170.386719 53.691406 168.5625 53.242188 165.984375 53.242188 C 163.410156 53.242188 161.578125 53.691406 160.496094 54.59375 C 159.410156 55.484375 158.738281 56.902344 158.476562 58.828125 C 158.214844 60.75 158.085938 63.984375 158.085938 68.53125 C 158.085938 73.074219 158.214844 76.316406 158.476562 78.242188 C 158.738281 80.164062 159.410156 81.574219 160.496094 82.472656 Z M 167.328125 77.9375 C 167.097656 78.242188 166.648438 78.386719 165.984375 78.386719 C 165.324219 78.386719 164.875 78.242188 164.636719 77.9375 C 164.40625 77.636719 164.261719 76.867188 164.1875 75.636719 C 164.113281 74.402344 164.070312 72.035156 164.070312 68.53125 C 164.070312 65.023438 164.113281 62.660156 164.1875 61.429688 C 164.261719 60.203125 164.40625 59.433594 164.636719 59.128906 C 164.875 58.828125 165.324219 58.671875 165.984375 58.671875 C 166.648438 58.671875 167.097656 58.828125 167.328125 59.128906 C 167.566406 59.433594 167.710938 60.203125 167.785156 61.429688 C 167.859375 62.660156 167.890625 65.023438 167.890625 68.53125 C 167.890625 72.035156 167.859375 74.402344 167.785156 75.636719 C 167.710938 76.867188 167.566406 77.636719 167.328125 77.9375 Z M 187.402344 82.472656 C 188.480469 83.375 190.3125 83.816406 192.890625 83.816406 C 195.460938 83.816406 197.292969 83.375 198.378906 82.472656 C 199.460938 81.574219 200.128906 80.15625 200.390625 78.214844 C 200.652344 76.277344 200.785156 73.050781 200.785156 68.53125 C 200.785156 64.019531 200.652344 60.785156 200.390625 58.84375 C 200.128906 56.910156 199.460938 55.484375 198.378906 54.59375 C 197.292969 53.691406 195.460938 53.242188 192.890625 53.242188 C 190.3125 53.242188 188.480469 53.691406 187.402344 54.59375 C 186.3125 55.484375 185.644531 56.902344 185.382812 58.828125 C 185.121094 60.75 184.988281 63.984375 184.988281 68.53125 C 184.988281 73.074219 185.121094 76.316406 185.382812 78.242188 C 185.644531 80.164062 186.3125 81.574219 187.402344 82.472656 Z M 194.234375 77.9375 C 194.003906 78.242188 193.554688 78.386719 192.890625 78.386719 C 192.21875 78.386719 191.769531 78.242188 191.542969 77.9375 C 191.3125 77.636719 191.15625 76.867188 191.082031 75.636719 C 191.019531 74.402344 190.976562 72.035156 190.976562 68.53125 C 190.976562 65.023438 191.019531 62.660156 191.082031 61.429688 C 191.15625 60.203125 191.3125 59.433594 191.542969 59.128906 C 191.769531 58.828125 192.21875 58.671875 192.890625 58.671875 C 193.554688 58.671875 194.003906 58.828125 194.234375 59.128906 C 194.460938 59.433594 194.617188 60.203125 194.691406 61.429688 C 194.765625 62.660156 194.796875 65.023438 194.796875 68.53125 C 194.796875 72.035156 194.765625 74.402344 194.691406 75.636719 C 194.617188 76.867188 194.460938 77.636719 194.234375 77.9375 Z M 212.367188 53.59375 L 212.367188 83.472656 L 219.617188 83.472656 C 222.191406 83.472656 224.015625 83.03125 225.105469 82.148438 C 226.191406 81.261719 226.863281 79.886719 227.125 78.003906 C 227.386719 76.121094 227.511719 72.960938 227.511719 68.53125 C 227.511719 64.101562 227.386719 60.949219 227.125 59.0625 C 226.863281 57.179688 226.191406 55.796875 225.105469 54.914062 C 224.015625 54.035156 222.191406 53.59375 219.617188 53.59375 Z M 219.617188 78.042969 L 218.273438 78.042969 L 218.273438 59.023438 L 219.617188 59.023438 C 220.3125 59.023438 220.777344 59.164062 221.023438 59.457031 C 221.269531 59.742188 221.433594 60.496094 221.503906 61.71875 C 221.578125 62.929688 221.613281 65.207031 221.613281 68.53125 C 221.613281 71.863281 221.578125 74.140625 221.503906 75.351562 C 221.433594 76.570312 221.269531 77.324219 221.023438 77.609375 C 220.777344 77.898438 220.3125 78.042969 219.617188 78.042969 Z M 239.101562 83.472656 L 251.078125 83.472656 L 251.078125 78.042969 L 245.039062 78.042969 L 245.039062 71.09375 L 250.332031 71.09375 L 250.332031 65.664062 L 245.039062 65.664062 L 245.039062 59.023438 L 251.078125 59.023438 L 251.078125 53.59375 L 239.101562 53.59375 Z M 273.074219 83.472656 L 278.277344 83.472656 L 278.277344 53.59375 L 272.601562 53.59375 L 272.601562 67.144531 L 272.378906 67.144531 L 268.125 53.59375 L 262.621094 53.59375 L 262.621094 83.472656 L 268.257812 83.472656 L 268.257812 68.488281 L 268.429688 68.488281 Z M 308.070312 83.605469 C 309.273438 83.75 310.359375 83.816406 311.34375 83.816406 C 313.085938 83.816406 314.464844 83.597656 315.515625 83.144531 C 316.550781 82.695312 317.371094 81.761719 317.960938 80.34375 C 318.558594 78.929688 318.851562 76.816406 318.851562 74.007812 C 318.851562 71.863281 318.679688 70.265625 318.328125 69.226562 C 317.984375 68.152344 317.511719 67.398438 316.921875 66.964844 C 316.324219 66.53125 315.613281 66.210938 314.769531 66.015625 L 312.039062 65.359375 C 311.546875 65.246094 311.203125 65.089844 311 64.902344 C 310.792969 64.714844 310.65625 64.417969 310.589844 64.019531 C 310.515625 63.609375 310.476562 62.96875 310.476562 62.101562 C 310.476562 61.292969 310.515625 60.675781 310.589844 60.257812 C 310.65625 59.84375 310.808594 59.515625 311.039062 59.277344 C 311.210938 59.023438 311.523438 58.851562 311.972656 58.777344 C 312.421875 58.710938 313.09375 58.671875 313.992188 58.671875 C 314.949219 58.671875 315.808594 58.703125 316.578125 58.761719 C 317.339844 58.820312 317.78125 58.875 317.894531 58.933594 L 317.894531 53.980469 C 317.664062 53.863281 317.011719 53.71875 315.949219 53.527344 C 314.875 53.339844 313.640625 53.242188 312.257812 53.242188 C 310.546875 53.242188 309.148438 53.472656 308.046875 53.9375 C 306.949219 54.40625 306.089844 55.289062 305.46875 56.609375 C 304.847656 57.925781 304.535156 59.832031 304.535156 62.324219 C 304.535156 64.722656 304.742188 66.589844 305.164062 67.925781 C 305.582031 69.257812 306.3125 70.035156 307.351562 70.265625 L 310.523438 71.011719 C 311.300781 71.183594 311.839844 71.378906 312.144531 71.59375 C 312.453125 71.8125 312.640625 72.148438 312.734375 72.617188 C 312.824219 73.074219 312.863281 73.894531 312.863281 75.046875 C 312.863281 75.769531 312.832031 76.339844 312.757812 76.757812 C 312.683594 77.183594 312.5625 77.519531 312.390625 77.78125 C 312.183594 78.042969 311.898438 78.207031 311.523438 78.28125 C 311.144531 78.355469 310.546875 78.386719 309.738281 78.386719 C 308.40625 78.386719 306.800781 78.304688 304.921875 78.132812 L 304.921875 83.039062 C 305.820312 83.269531 306.867188 83.457031 308.070312 83.605469 Z M 332.953125 83.472656 L 338.902344 83.472656 L 338.902344 59.105469 L 343.277344 59.105469 L 343.277344 53.59375 L 328.570312 53.59375 L 328.570312 59.105469 L 332.953125 59.105469 Z M 357.8125 83.472656 L 363.800781 83.472656 L 363.800781 73.089844 L 369.488281 53.59375 L 363.671875 53.59375 L 361.199219 66.53125 L 360.765625 66.53125 L 358.117188 53.59375 L 352.128906 53.59375 L 357.8125 73.089844 Z M 379.769531 83.472656 L 391.179688 83.472656 L 391.179688 77.953125 L 385.71875 77.953125 L 385.71875 53.59375 L 379.769531 53.59375 Z M 401.988281 83.472656 L 413.964844 83.472656 L 413.964844 78.042969 L 407.933594 78.042969 L 407.933594 71.09375 L 413.226562 71.09375 L 413.226562 65.664062 L 407.933594 65.664062 L 407.933594 59.023438 L 413.964844 59.023438 L 413.964844 53.59375 L 401.988281 53.59375 Z M 401.988281 83.472656 "/>
<path style=" stroke:none;fill-rule:nonzero;fill:rgb(10.980392%,10.980392%,10.980392%);fill-opacity:1;" d="M 227.382812 104.816406 L 227.382812 105.707031 L 231.070312 105.707031 L 231.070312 104.816406 L 229.917969 104.617188 L 229.917969 100.039062 C 230.0625 99.730469 230.277344 99.484375 230.546875 99.3125 C 230.824219 99.132812 231.167969 99.050781 231.59375 99.050781 C 232.101562 99.050781 232.484375 99.214844 232.746094 99.550781 C 233.015625 99.878906 233.148438 100.402344 233.148438 101.121094 L 233.148438 104.617188 L 231.996094 104.816406 L 231.996094 105.707031 L 235.691406 105.707031 L 235.691406 104.816406 L 234.539062 104.617188 L 234.539062 100.851562 C 234.589844 100.335938 234.757812 99.902344 235.054688 99.558594 C 235.347656 99.222656 235.734375 99.050781 236.222656 99.050781 C 236.730469 99.050781 237.117188 99.207031 237.371094 99.515625 C 237.632812 99.828125 237.761719 100.367188 237.761719 101.121094 L 237.761719 104.617188 L 236.609375 104.816406 L 236.609375 105.707031 L 240.304688 105.707031 L 240.304688 104.816406 L 239.160156 104.617188 L 239.160156 101.128906 C 239.160156 100.058594 238.933594 99.253906 238.480469 98.722656 C 238.03125 98.183594 237.410156 97.921875 236.632812 97.921875 C 236.101562 97.921875 235.644531 98.042969 235.242188 98.296875 C 234.851562 98.550781 234.53125 98.894531 234.292969 99.328125 C 234.105469 98.863281 233.835938 98.511719 233.46875 98.273438 C 233.105469 98.035156 232.664062 97.921875 232.160156 97.921875 C 231.652344 97.921875 231.203125 98.019531 230.816406 98.214844 C 230.433594 98.410156 230.113281 98.691406 229.867188 99.058594 L 229.777344 98.058594 L 227.382812 98.058594 L 227.382812 98.960938 L 228.527344 99.15625 L 228.527344 104.617188 Z M 244.738281 105.855469 C 245.371094 105.855469 245.910156 105.765625 246.359375 105.585938 C 246.808594 105.40625 247.167969 105.183594 247.4375 104.914062 L 246.898438 104.011719 C 246.636719 104.25 246.335938 104.429688 245.976562 104.570312 C 245.625 104.699219 245.207031 104.765625 244.738281 104.765625 C 244.09375 104.765625 243.59375 104.527344 243.234375 104.054688 C 242.875 103.585938 242.6875 102.980469 242.679688 102.242188 L 242.695312 102.210938 L 247.652344 102.210938 L 247.652344 101.335938 C 247.652344 100.304688 247.390625 99.476562 246.859375 98.855469 C 246.328125 98.230469 245.550781 97.921875 244.527344 97.921875 C 243.644531 97.921875 242.875 98.28125 242.226562 99 C 241.582031 99.722656 241.253906 100.628906 241.253906 101.71875 L 241.253906 102.03125 C 241.253906 103.160156 241.566406 104.085938 242.195312 104.789062 C 242.824219 105.503906 243.675781 105.855469 244.738281 105.855469 Z M 244.527344 99.007812 C 245.101562 99.007812 245.53125 99.199219 245.828125 99.566406 C 246.113281 99.933594 246.261719 100.386719 246.261719 100.933594 L 246.261719 101.121094 L 242.734375 101.121094 L 242.726562 101.082031 C 242.800781 100.492188 243.003906 100 243.332031 99.605469 C 243.660156 99.207031 244.0625 99.007812 244.527344 99.007812 Z M 256.011719 102.171875 L 256.011719 102.023438 C 256.011719 100.792969 255.75 99.804688 255.226562 99.050781 C 254.695312 98.296875 253.957031 97.921875 253.019531 97.921875 C 252.542969 97.921875 252.125 98.011719 251.773438 98.183594 C 251.421875 98.363281 251.121094 98.625 250.882812 98.960938 L 250.882812 94.675781 L 248.339844 94.675781 L 248.339844 95.578125 L 249.492188 95.773438 L 249.492188 105.707031 L 250.6875 105.707031 L 250.816406 104.726562 C 251.0625 105.09375 251.367188 105.378906 251.734375 105.566406 C 252.101562 105.757812 252.535156 105.855469 253.035156 105.855469 C 253.957031 105.855469 254.695312 105.519531 255.21875 104.839844 C 255.75 104.167969 256.011719 103.273438 256.011719 102.171875 Z M 254.621094 102.023438 L 254.621094 102.171875 C 254.621094 102.941406 254.457031 103.5625 254.140625 104.027344 C 253.820312 104.496094 253.335938 104.726562 252.683594 104.726562 C 252.257812 104.726562 251.890625 104.617188 251.59375 104.414062 C 251.292969 104.207031 251.054688 103.921875 250.882812 103.570312 L 250.882812 100.195312 C 251.054688 99.84375 251.292969 99.566406 251.585938 99.363281 C 251.882812 99.148438 252.242188 99.050781 252.667969 99.050781 C 253.328125 99.050781 253.820312 99.320312 254.140625 99.878906 C 254.457031 100.425781 254.621094 101.144531 254.621094 102.023438 Z M 257.140625 95.578125 L 258.285156 95.773438 L 258.285156 104.617188 L 257.140625 104.816406 L 257.140625 105.707031 L 260.832031 105.707031 L 260.832031 104.816406 L 259.683594 104.617188 L 259.683594 94.675781 L 257.140625 94.675781 Z M 265.371094 105.855469 C 266 105.855469 266.546875 105.765625 266.988281 105.585938 C 267.441406 105.40625 267.808594 105.183594 268.078125 104.914062 L 267.539062 104.011719 C 267.277344 104.25 266.964844 104.429688 266.613281 104.570312 C 266.253906 104.699219 265.84375 104.765625 265.371094 104.765625 C 264.730469 104.765625 264.226562 104.527344 263.863281 104.054688 C 263.511719 103.585938 263.324219 102.980469 263.308594 102.242188 L 263.332031 102.210938 L 268.289062 102.210938 L 268.289062 101.335938 C 268.289062 100.304688 268.027344 99.476562 267.496094 98.855469 C 266.964844 98.230469 266.1875 97.921875 265.15625 97.921875 C 264.273438 97.921875 263.511719 98.28125 262.859375 99 C 262.210938 99.722656 261.894531 100.628906 261.894531 101.71875 L 261.894531 102.03125 C 261.894531 103.160156 262.203125 104.085938 262.835938 104.789062 C 263.464844 105.503906 264.308594 105.855469 265.371094 105.855469 Z M 265.15625 99.007812 C 265.738281 99.007812 266.171875 99.199219 266.457031 99.566406 C 266.753906 99.933594 266.898438 100.386719 266.898438 100.933594 L 266.898438 101.121094 L 263.375 101.121094 L 263.359375 101.082031 C 263.441406 100.492188 263.636719 100 263.972656 99.605469 C 264.296875 99.207031 264.691406 99.007812 265.15625 99.007812 Z M 278.402344 104.796875 L 278.515625 105.707031 L 280.871094 105.707031 L 280.871094 104.816406 L 279.726562 104.617188 L 279.726562 94.675781 L 277.183594 94.675781 L 277.183594 95.578125 L 278.335938 95.773438 L 278.335938 98.894531 C 278.089844 98.574219 277.796875 98.335938 277.445312 98.164062 C 277.101562 98.003906 276.699219 97.921875 276.25 97.921875 C 275.308594 97.921875 274.574219 98.296875 274.050781 99.050781 C 273.527344 99.804688 273.265625 100.792969 273.265625 102.023438 L 273.265625 102.171875 C 273.265625 103.273438 273.527344 104.167969 274.050781 104.839844 C 274.574219 105.519531 275.300781 105.855469 276.234375 105.855469 C 276.707031 105.855469 277.125 105.765625 277.484375 105.585938 C 277.84375 105.40625 278.15625 105.140625 278.402344 104.796875 Z M 274.65625 102.171875 L 274.65625 102.023438 C 274.65625 101.144531 274.808594 100.425781 275.128906 99.878906 C 275.449219 99.320312 275.9375 99.050781 276.601562 99.050781 C 277.003906 99.050781 277.347656 99.140625 277.632812 99.328125 C 277.917969 99.515625 278.15625 99.769531 278.335938 100.097656 L 278.335938 103.644531 C 278.148438 103.988281 277.917969 104.25 277.632812 104.4375 C 277.355469 104.625 277.003906 104.726562 276.585938 104.726562 C 275.929688 104.726562 275.441406 104.496094 275.128906 104.027344 C 274.808594 103.5625 274.65625 102.941406 274.65625 102.171875 Z M 281.933594 98.960938 L 283.089844 99.15625 L 283.089844 104.617188 L 281.933594 104.816406 L 281.933594 105.707031 L 285.625 105.707031 L 285.625 104.816406 L 284.480469 104.617188 L 284.480469 100.230469 C 284.609375 99.917969 284.808594 99.671875 285.050781 99.5 C 285.304688 99.328125 285.617188 99.246094 285.984375 99.246094 L 286.769531 99.289062 L 286.957031 97.992188 C 286.894531 97.976562 286.804688 97.960938 286.6875 97.945312 C 286.574219 97.929688 286.46875 97.921875 286.351562 97.921875 C 285.945312 97.921875 285.582031 98.027344 285.265625 98.246094 C 284.945312 98.46875 284.675781 98.78125 284.464844 99.164062 L 284.332031 98.058594 L 281.933594 98.058594 Z M 291.269531 105.855469 C 291.898438 105.855469 292.4375 105.765625 292.890625 105.585938 C 293.339844 105.40625 293.699219 105.183594 293.976562 104.914062 L 293.429688 104.011719 C 293.175781 104.25 292.863281 104.429688 292.511719 104.570312 C 292.152344 104.699219 291.742188 104.765625 291.269531 104.765625 C 290.621094 104.765625 290.125 104.527344 289.765625 104.054688 C 289.414062 103.585938 289.222656 102.980469 289.207031 102.242188 L 289.230469 102.210938 L 294.191406 102.210938 L 294.191406 101.335938 C 294.191406 100.304688 293.917969 99.476562 293.394531 98.855469 C 292.863281 98.230469 292.085938 97.921875 291.054688 97.921875 C 290.171875 97.921875 289.402344 98.28125 288.757812 99 C 288.113281 99.722656 287.792969 100.628906 287.792969 101.71875 L 287.792969 102.03125 C 287.792969 103.160156 288.101562 104.085938 288.734375 104.789062 C 289.363281 105.503906 290.207031 105.855469 291.269531 105.855469 Z M 291.054688 99.007812 C 291.636719 99.007812 292.0625 99.199219 292.355469 99.566406 C 292.652344 99.933594 292.800781 100.386719 292.800781 100.933594 L 292.800781 101.121094 L 289.273438 101.121094 L 289.257812 101.082031 C 289.332031 100.492188 289.535156 100 289.863281 99.605469 C 290.199219 99.207031 290.589844 99.007812 291.054688 99.007812 Z M 298.273438 98.960938 L 298.273438 98.058594 L 295.359375 98.058594 L 295.359375 98.960938 L 296.03125 99.058594 L 297.960938 105.707031 L 299.082031 105.707031 L 300.539062 101.046875 L 300.832031 99.769531 L 300.871094 99.761719 L 301.191406 101.046875 L 302.671875 105.707031 L 303.800781 105.707031 L 305.722656 99.058594 L 306.394531 98.960938 L 306.394531 98.058594 L 303.480469 98.058594 L 303.480469 98.960938 L 304.375 99.117188 L 303.433594 102.921875 L 303.230469 103.953125 L 303.1875 103.953125 L 302.96875 102.921875 L 301.4375 98.058594 L 300.316406 98.058594 L 298.796875 102.921875 L 298.589844 103.847656 L 298.550781 103.847656 L 298.386719 102.921875 L 297.394531 99.117188 Z M 307.3125 104.816406 L 307.3125 105.707031 L 311 105.707031 L 311 104.816406 L 309.855469 104.617188 L 309.855469 100.132812 C 310.035156 99.796875 310.28125 99.535156 310.589844 99.335938 C 310.902344 99.148438 311.253906 99.050781 311.65625 99.050781 C 312.203125 99.050781 312.601562 99.1875 312.875 99.476562 C 313.136719 99.753906 313.265625 100.230469 313.265625 100.910156 L 313.265625 104.617188 L 312.121094 104.816406 L 312.121094 105.707031 L 315.808594 105.707031 L 315.808594 104.816406 L 314.664062 104.617188 L 314.664062 100.875 C 314.664062 99.867188 314.4375 99.125 313.984375 98.640625 C 313.527344 98.15625 312.890625 97.921875 312.070312 97.921875 C 311.582031 97.921875 311.140625 98.027344 310.761719 98.257812 C 310.378906 98.476562 310.058594 98.789062 309.804688 99.199219 L 309.707031 98.058594 L 307.3125 98.058594 L 307.3125 98.960938 L 308.464844 99.15625 L 308.464844 104.617188 Z M 316.824219 104.816406 L 316.824219 105.707031 L 320.515625 105.707031 L 320.515625 104.816406 L 319.367188 104.617188 L 319.367188 98.058594 L 316.824219 98.058594 L 316.824219 98.960938 L 317.96875 99.15625 L 317.96875 104.617188 Z M 319.367188 96.101562 L 319.367188 94.675781 L 317.96875 94.675781 L 317.96875 96.101562 Z M 326.558594 105.707031 L 328.382812 105.707031 L 328.382812 104.816406 L 327.820312 104.742188 C 327.8125 104.644531 327.800781 104.554688 327.800781 104.453125 C 327.800781 104.363281 327.792969 104.265625 327.792969 104.167969 L 327.792969 100.484375 C 327.792969 99.65625 327.53125 99.027344 326.992188 98.582031 C 326.453125 98.140625 325.757812 97.921875 324.890625 97.921875 C 324.308594 97.921875 323.769531 98.003906 323.277344 98.164062 C 322.78125 98.335938 322.363281 98.558594 322.011719 98.835938 L 322.011719 100.320312 L 323.089844 100.320312 L 323.238281 99.515625 C 323.402344 99.363281 323.613281 99.238281 323.882812 99.148438 C 324.144531 99.058594 324.457031 99.007812 324.800781 99.007812 C 325.308594 99.007812 325.699219 99.140625 325.976562 99.402344 C 326.265625 99.664062 326.402344 100.023438 326.402344 100.464844 L 326.402344 101.359375 L 324.972656 101.359375 C 323.949219 101.359375 323.148438 101.554688 322.558594 101.949219 C 321.976562 102.34375 321.683594 102.90625 321.683594 103.628906 C 321.683594 104.339844 321.886719 104.878906 322.304688 105.273438 C 322.714844 105.65625 323.320312 105.855469 324.121094 105.855469 C 324.570312 105.855469 325.003906 105.738281 325.40625 105.511719 C 325.804688 105.28125 326.140625 104.996094 326.410156 104.652344 C 326.421875 104.824219 326.4375 104.988281 326.460938 105.152344 C 326.484375 105.3125 326.519531 105.503906 326.558594 105.707031 Z M 324.324219 104.691406 C 323.902344 104.691406 323.589844 104.601562 323.386719 104.421875 C 323.171875 104.25 323.074219 103.988281 323.074219 103.660156 C 323.074219 103.285156 323.238281 102.957031 323.574219 102.695312 C 323.902344 102.433594 324.351562 102.300781 324.921875 102.300781 L 326.402344 102.300781 L 326.402344 103.5625 C 326.238281 103.875 325.96875 104.136719 325.585938 104.355469 C 325.210938 104.578125 324.785156 104.691406 324.324219 104.691406 Z M 329.339844 104.816406 L 329.339844 105.707031 L 333.03125 105.707031 L 333.03125 104.816406 L 331.875 104.617188 L 331.875 100.132812 C 332.0625 99.796875 332.308594 99.535156 332.621094 99.335938 C 332.921875 99.148438 333.285156 99.050781 333.683594 99.050781 C 334.222656 99.050781 334.632812 99.1875 334.894531 99.476562 C 335.164062 99.753906 335.296875 100.230469 335.296875 100.910156 L 335.296875 104.617188 L 334.148438 104.816406 L 334.148438 105.707031 L 337.839844 105.707031 L 337.839844 104.816406 L 336.6875 104.617188 L 336.6875 100.875 C 336.6875 99.867188 336.464844 99.125 336.007812 98.640625 C 335.558594 98.15625 334.917969 97.921875 334.09375 97.921875 C 333.609375 97.921875 333.167969 98.027344 332.785156 98.257812 C 332.398438 98.476562 332.082031 98.789062 331.828125 99.199219 L 331.730469 98.058594 L 329.339844 98.058594 L 329.339844 98.960938 L 330.484375 99.15625 L 330.484375 104.617188 Z M 342.265625 105.855469 C 342.894531 105.855469 343.441406 105.765625 343.886719 105.585938 C 344.335938 105.40625 344.703125 105.183594 344.972656 104.914062 L 344.433594 104.011719 C 344.171875 104.25 343.859375 104.429688 343.507812 104.570312 C 343.148438 104.699219 342.738281 104.765625 342.265625 104.765625 C 341.617188 104.765625 341.121094 104.527344 340.761719 104.054688 C 340.410156 103.585938 340.21875 102.980469 340.203125 102.242188 L 340.226562 102.210938 L 345.183594 102.210938 L 345.183594 101.335938 C 345.183594 100.304688 344.921875 99.476562 344.390625 98.855469 C 343.859375 98.230469 343.082031 97.921875 342.050781 97.921875 C 341.167969 97.921875 340.410156 98.28125 339.753906 99 C 339.109375 99.722656 338.789062 100.628906 338.789062 101.71875 L 338.789062 102.03125 C 338.789062 103.160156 339.097656 104.085938 339.730469 104.789062 C 340.359375 105.503906 341.203125 105.855469 342.265625 105.855469 Z M 342.050781 99.007812 C 342.632812 99.007812 343.066406 99.199219 343.351562 99.566406 C 343.648438 99.933594 343.792969 100.386719 343.792969 100.933594 L 343.792969 101.121094 L 340.269531 101.121094 L 340.253906 101.082031 C 340.328125 100.492188 340.53125 100 340.867188 99.605469 C 341.195312 99.207031 341.585938 99.007812 342.050781 99.007812 Z M 342.050781 99.007812 "/>
</g>
</svg>
